<?xml version="1.0" standalone="no"?><!DOCTYPE svg PUBLIC "-//W3C//DTD SVG 1.1//EN" "http://www.w3.org/Graphics/SVG/1.1/DTD/svg11.dtd"><svg t="1616340501055" class="icon" viewBox="0 0 1024 1024" version="1.1" xmlns="http://www.w3.org/2000/svg" p-id="1178" xmlns:xlink="http://www.w3.org/1999/xlink" width="200" height="200"><defs><style type="text/css"></style></defs><path d="M899.584 211.968c0.512-12.8-4.608-25.088-13.824-34.304L748.544 43.008c-8.704-8.704-20.992-13.824-33.28-13.824H171.52c-26.112 0-47.104 20.992-47.104 47.104v774.656c0 12.8 5.12 25.088 14.336 33.792L235.008 977.92c18.432 17.408 47.104 17.408 65.536 0l87.552-84.48 91.136 88.064c18.432 17.408 47.104 17.408 65.536 0l91.136-88.064 91.136 88.064c8.704 8.704 20.48 13.312 32.768 13.312 12.288 0 24.064-4.608 32.768-13.312l92.16-89.088c9.216-9.216 14.336-20.992 14.336-33.792l0.512-646.656z m-72.192 635.904l-67.072 64.512-98.816-95.232c-14.336-13.824-36.352-13.824-50.176 0l-98.816 95.232-98.816-95.232c-7.168-6.656-15.872-10.24-25.088-10.24-9.216 0-17.92 3.584-25.088 10.24l-95.232 91.648-71.168-68.608V101.376h491.008c5.12 0 10.24 2.048 13.824 5.632L821.76 225.28c3.584 3.584 5.632 8.704 5.632 13.824v608.768z" p-id="1179"></path><path d="M696.32 445.952H328.192c-19.968 0-36.352 16.384-36.352 36.352s16.384 36.352 36.352 36.352H696.32c9.728 0 18.944-3.584 25.6-10.752 6.656-6.656 10.752-15.872 10.24-25.6 0.512-20.48-15.872-36.352-35.84-36.352zM328.192 361.472h162.816c19.968 0 36.352-16.384 36.352-36.352 0-19.968-16.384-36.352-36.352-36.352H328.192c-19.968 0-36.352 16.384-36.352 36.352 0 19.968 16.384 36.352 36.352 36.352zM696.32 605.184H328.192c-19.968 0-36.352 16.384-36.352 36.352s16.384 36.352 36.352 36.352H696.32c9.728 0 18.944-3.584 25.6-10.752 6.656-6.656 10.752-15.872 10.24-25.6 0.512-20.48-15.872-36.352-35.84-36.352z" p-id="1180"></path></svg>