<?xml version="1.0" standalone="no"?><!DOCTYPE svg PUBLIC "-//W3C//DTD SVG 1.1//EN" "http://www.w3.org/Graphics/SVG/1.1/DTD/svg11.dtd"><svg t="1708313625141" class="icon" viewBox="0 0 1024 1024" version="1.1" xmlns="http://www.w3.org/2000/svg" p-id="6721" xmlns:xlink="http://www.w3.org/1999/xlink" width="200" height="200"><path d="M509.452736 855.880597c-20.378109 0-35.661692 15.283582-35.661691 35.661692v96.796019c0 20.378109 15.283582 35.661692 35.661691 35.661692s35.661692-15.283582 35.661692-35.661692v-96.796019c0-25.472637-15.283582-35.661692-35.661692-35.661692z m-275.104477-122.268657l-61.134329 66.228856c-10.189055 10.189055-10.189055 35.661692 0 45.850746s35.661692 10.189055 45.850747 0l66.228855-66.228855c10.189055-10.189055 10.189055-35.661692 0-45.850747-15.283582-10.189055-35.661692-10.189055-50.945273 0z m570.587064 20.37811c-10.189055-10.189055-35.661692-10.189055-45.850746 0s-10.189055 35.661692 0 45.850746l66.228856 66.228856c10.189055 10.189055 35.661692 10.189055 45.850746 0 10.189055-10.189055 10.189055-35.661692 0-45.850747l-66.228856-66.228855z m178.308458-280.199005h-96.79602c-20.378109 0-35.661692 15.283582-35.661691 35.661691s15.283582 35.661692 35.661691 35.661692h96.79602c20.378109 0 35.661692-15.283582 35.661692-35.661692s-15.283582-35.661692-35.661692-35.661691z m-473.791045-254.726368c-157.930348 0-285.293532 127.363184-285.293532 285.293532S356.616915 789.651741 509.452736 789.651741c157.930348 0 285.293532-127.363184 285.293533-285.293532 0-152.835821-127.363184-285.293532-285.293533-285.293532z m-382.089552 254.726368H35.661692c-20.378109 0-35.661692 15.283582-35.661692 35.661691s15.283582 35.661692 35.661692 35.661692h96.796019c20.378109 0 35.661692-15.283582 35.661692-35.661692-10.189055-20.378109-25.472637-35.661692-40.756219-35.661691zM509.452736 157.930348c20.378109 0 35.661692-15.283582 35.661692-35.661691V35.661692c0-20.378109-15.283582-35.661692-35.661692-35.661692s-35.661692 15.283582-35.661691 35.661692v96.796019c0 10.189055 15.283582 25.472637 35.661691 25.472637z m305.671642 91.701493l66.228856-66.228856c10.189055-10.189055 10.189055-35.661692 0-45.850746-10.189055-10.189055-35.661692-10.189055-45.850746 0L769.273632 203.781095c-10.189055 10.189055-10.189055 35.661692 0 45.850746 10.189055 10.189055 35.661692 10.189055 45.850746 0z m-601.154229 10.189055c10.189055 10.189055 35.661692 10.189055 45.850747 0s10.189055-35.661692 0-45.850747L193.59204 152.835821c-10.189055-15.283582-30.567164-15.283582-45.850746 0-10.189055 10.189055-10.189055 30.567164 0 45.850746l66.228855 61.134329z" fill="#333333" p-id="6722"></path></svg>