<?xml version="1.0" standalone="no"?><!DOCTYPE svg PUBLIC "-//W3C//DTD SVG 1.1//EN" "http://www.w3.org/Graphics/SVG/1.1/DTD/svg11.dtd"><svg t="1707909893248" class="icon" viewBox="0 0 1024 1024" version="1.1" xmlns="http://www.w3.org/2000/svg" p-id="4409" xmlns:xlink="http://www.w3.org/1999/xlink" width="200" height="200"><path d="M852.736 604.416A128.042667 128.042667 0 0 1 810.666667 853.333333a128 128 0 0 1-42.069334-248.917333A42.965333 42.965333 0 0 1 768 597.333333a256.170667 256.170667 0 0 0-146.901333-231.68A127.914667 127.914667 0 0 1 512 426.666667a127.914667 127.914667 0 0 1-109.098667-61.013334A256.170667 256.170667 0 0 0 256 597.333333c0 2.432-0.213333 4.778667-0.597333 7.082667A128.042667 128.042667 0 0 1 213.333333 853.333333a128 128 0 0 1-42.069333-248.917333A42.965333 42.965333 0 0 1 170.666667 597.333333a341.504 341.504 0 0 1 214.613333-317.013333 128 128 0 0 1 253.44 0A341.504 341.504 0 0 1 853.333333 597.333333c0 2.432-0.213333 4.778667-0.597333 7.082667zM213.333333 768a42.666667 42.666667 0 1 0 0-85.333333 42.666667 42.666667 0 0 0 0 85.333333z m298.666667-426.666667a42.666667 42.666667 0 1 0 0-85.333333 42.666667 42.666667 0 0 0 0 85.333333z m298.666667 426.666667a42.666667 42.666667 0 1 0 0-85.333333 42.666667 42.666667 0 0 0 0 85.333333z" fill="#1C1C1C" p-id="4410"></path></svg>